<svg xmlns="http://www.w3.org/2000/svg" width="900" height="520" viewBox="0 0 900 520">
<rect width="900" height="520" fill="#ffffff"/>
<text x="450" y="36" text-anchor="middle" font-size="24" font-family="Arial" fill="#1f2937">延迟/终局指标对比（P99 或出块间隔）</text>
<text x="450" y="62" text-anchor="middle" font-size="12" font-family="Arial" fill="#6b7280">PoW 使用 block interval，其他算法使用 P99 延迟；单位均为 ms</text>
<line x1="90" y1="440" x2="840" y2="440" stroke="#111827" stroke-width="2"/>
<line x1="90" y1="90" x2="90" y2="440" stroke="#111827" stroke-width="2"/>
<g font-size="12" font-family="Arial" fill="#4b5563">
<text x="58" y="444">0</text>
<text x="42" y="374">200</text>
<text x="42" y="304">400</text>
<text x="42" y="234">600</text>
<text x="42" y="164">800</text>
<text x="35" y="94">1000</text>
</g>
<g stroke="#e5e7eb" stroke-width="1">
<line x1="90" y1="370" x2="840" y2="370"/>
<line x1="90" y1="300" x2="840" y2="300"/>
<line x1="90" y1="230" x2="840" y2="230"/>
<line x1="90" y1="160" x2="840" y2="160"/>
<line x1="90" y1="90" x2="840" y2="90"/>
</g>
<rect x="120" y="268.5" width="85" height="171.5" fill="#93c5fd"/>
<rect x="240" y="174.0" width="85" height="266.0" fill="#60a5fa"/>
<rect x="360" y="132.0" width="85" height="308.0" fill="#3b82f6"/>
<rect x="480" y="435.4" width="85" height="4.6" fill="#10b981"/>
<rect x="600" y="400.9" width="85" height="39.1" fill="#059669"/>
<rect x="720" y="90.8" width="85" height="349.2" fill="#f97316"/>
<g font-size="12" font-family="Arial" fill="#111827">
<text x="162.5" y="260" text-anchor="middle">490.00</text>
<text x="282.5" y="165" text-anchor="middle">760.00</text>
<text x="402.5" y="123" text-anchor="middle">880.00</text>
<text x="522.5" y="427" text-anchor="middle">13.04</text>
<text x="642.5" y="392" text-anchor="middle">111.55</text>
<text x="762.5" y="82" text-anchor="middle">997.84</text>
</g>
<g font-size="12" font-family="Arial" fill="#111827">
<text x="162.5" y="468" text-anchor="middle">tPBFT</text>
<text x="282.5" y="468" text-anchor="middle">HotStuff</text>
<text x="402.5" y="468" text-anchor="middle">Raft</text>
<text x="522.5" y="468" text-anchor="middle">IBFT</text>
<text x="642.5" y="468" text-anchor="middle">Hier-TPBFT</text>
<text x="762.5" y="468" text-anchor="middle">PoW</text>
</g>
<text x="25" y="270" transform="rotate(-90 25,270)" text-anchor="middle" font-size="14" font-family="Arial" fill="#111827">Latency / Interval (ms)</text>
</svg>
