<svg xmlns="http://www.w3.org/2000/svg" width="900" height="520" viewBox="0 0 900 520">
<rect width="900" height="520" fill="#ffffff"/>
<text x="450" y="36" text-anchor="middle" font-size="24" font-family="Arial" fill="#1f2937">节点规模 vs TPS（Votor 与 PoW）</text>
<text x="450" y="62" text-anchor="middle" font-size="12" font-family="Arial" fill="#6b7280">数据来源：exp6_summary.csv（fault_ratio=0.0）与 exp7_summary.csv（最新）</text>
<line x1="90" y1="440" x2="840" y2="440" stroke="#111827" stroke-width="2"/>
<line x1="90" y1="90" x2="90" y2="440" stroke="#111827" stroke-width="2"/>
<g font-size="12" font-family="Arial" fill="#4b5563">
<text x="58" y="444">0</text>
<text x="50" y="387">5</text>
<text x="42" y="330">10</text>
<text x="42" y="273">15</text>
<text x="42" y="216">20</text>
<text x="42" y="159">25</text>
<text x="42" y="102">30</text>
</g>
<g stroke="#e5e7eb" stroke-width="1">
<line x1="90" y1="383.3" x2="840" y2="383.3"/>
<line x1="90" y1="326.7" x2="840" y2="326.7"/>
<line x1="90" y1="270.0" x2="840" y2="270.0"/>
<line x1="90" y1="213.3" x2="840" y2="213.3"/>
<line x1="90" y1="156.7" x2="840" y2="156.7"/>
<line x1="90" y1="100.0" x2="840" y2="100.0"/>
</g>
<polyline fill="none" stroke="#dc2626" stroke-width="4" points="120,176.9 214.3,149.3 402.9,181.2 780,204.3"/>
<polyline fill="none" stroke="#2563eb" stroke-width="4" stroke-dasharray="8 6" points="120,278.7 214.3,280.3 402.9,279.6 780,287.6"/>
<g fill="#dc2626">
<circle cx="120" cy="176.9" r="6"/>
<circle cx="214.3" cy="149.3" r="6"/>
<circle cx="402.9" cy="181.2" r="6"/>
<circle cx="780" cy="204.3" r="6"/>
</g>
<g fill="#2563eb">
<circle cx="120" cy="278.7" r="6"/>
<circle cx="214.3" cy="280.3" r="6"/>
<circle cx="402.9" cy="279.6" r="6"/>
<circle cx="780" cy="287.6" r="6"/>
</g>
<g font-size="12" font-family="Arial" fill="#111827">
<text x="120" y="164" text-anchor="middle">23.21</text>
<text x="214.3" y="136" text-anchor="middle">25.65</text>
<text x="402.9" y="168" text-anchor="middle">22.83</text>
<text x="780" y="191" text-anchor="middle">20.80</text>
<text x="120" y="266" text-anchor="middle">14.24</text>
<text x="214.3" y="268" text-anchor="middle">14.09</text>
<text x="402.9" y="267" text-anchor="middle">14.16</text>
<text x="780" y="275" text-anchor="middle">13.45</text>
</g>
<g font-size="12" font-family="Arial" fill="#111827">
<text x="120" y="468" text-anchor="middle">4</text>
<text x="214.3" y="468" text-anchor="middle">8</text>
<text x="402.9" y="468" text-anchor="middle">16</text>
<text x="780" y="468" text-anchor="middle">32</text>
</g>
<line x1="560" y1="110" x2="600" y2="110" stroke="#dc2626" stroke-width="4"/>
<text x="610" y="114" font-size="12" font-family="Arial" fill="#111827">Votor</text>
<line x1="680" y1="110" x2="720" y2="110" stroke="#2563eb" stroke-width="4" stroke-dasharray="8 6"/>
<text x="730" y="114" font-size="12" font-family="Arial" fill="#111827">PoW</text>
<text x="25" y="270" transform="rotate(-90 25,270)" text-anchor="middle" font-size="14" font-family="Arial" fill="#111827">TPS</text>
<text x="460" y="500" text-anchor="middle" font-size="14" font-family="Arial" fill="#111827">节点规模</text>
</svg>
