<svg xmlns="http://www.w3.org/2000/svg" width="900" height="520" viewBox="0 0 900 520">
<rect width="900" height="520" fill="#ffffff"/>
<text x="450" y="36" text-anchor="middle" font-size="24" font-family="Arial" fill="#1f2937">当前可复现实验样本延迟分布（P50 / P99）</text>
<text x="450" y="62" text-anchor="middle" font-size="12" font-family="Arial" fill="#6b7280">数据来源：exp1_tx_nodes/report/result.json 与 exp8_ibft/report/result.json</text>
<line x1="90" y1="440" x2="840" y2="440" stroke="#111827" stroke-width="2"/>
<line x1="90" y1="90" x2="90" y2="440" stroke="#111827" stroke-width="2"/>
<g font-size="12" font-family="Arial" fill="#4b5563">
<text x="58" y="444">0</text>
<text x="50" y="394">2</text>
<text x="50" y="348">4</text>
<text x="50" y="302">6</text>
<text x="50" y="256">8</text>
<text x="42" y="210">10</text>
<text x="42" y="164">12</text>
<text x="42" y="118">14</text>
</g>
<g stroke="#e5e7eb" stroke-width="1">
<line x1="90" y1="394" x2="840" y2="394"/>
<line x1="90" y1="348" x2="840" y2="348"/>
<line x1="90" y1="302" x2="840" y2="302"/>
<line x1="90" y1="256" x2="840" y2="256"/>
<line x1="90" y1="210" x2="840" y2="210"/>
<line x1="90" y1="164" x2="840" y2="164"/>
<line x1="90" y1="118" x2="840" y2="118"/>
</g>
<rect x="190" y="416.5" width="90" height="23.5" fill="#60a5fa"/>
<rect x="300" y="140.1" width="90" height="299.9" fill="#1d4ed8"/>
<rect x="520" y="394.2" width="90" height="45.8" fill="#86efac"/>
<rect x="630" y="141.1" width="90" height="298.9" fill="#15803d"/>
<g font-size="12" font-family="Arial" fill="#111827">
<text x="235" y="408" text-anchor="middle">0.95</text>
<text x="345" y="132" text-anchor="middle">12.18</text>
<text x="565" y="386" text-anchor="middle">1.97</text>
<text x="675" y="133" text-anchor="middle">13.04</text>
</g>
<g font-size="12" font-family="Arial" fill="#111827">
<text x="235" y="468" text-anchor="middle">tPBFT P50</text>
<text x="345" y="468" text-anchor="middle">tPBFT P99</text>
<text x="565" y="468" text-anchor="middle">IBFT P50</text>
<text x="675" y="468" text-anchor="middle">IBFT P99</text>
</g>
<text x="290" y="490" text-anchor="middle" font-size="12" font-family="Arial" fill="#6b7280">4 节点 tPBFT 小样本真实运行</text>
<text x="620" y="490" text-anchor="middle" font-size="12" font-family="Arial" fill="#6b7280">4 节点 IBFT 基线样本</text>
<text x="25" y="270" transform="rotate(-90 25,270)" text-anchor="middle" font-size="14" font-family="Arial" fill="#111827">Latency (ms)</text>
</svg>
