<svg xmlns="http://www.w3.org/2000/svg" width="900" height="520" viewBox="0 0 900 520">
<rect width="900" height="520" fill="#ffffff"/>
<text x="450" y="36" text-anchor="middle" font-size="24" font-family="Arial" fill="#1f2937">节点规模 vs 性能（Votor，fault_ratio=0.0）</text>
<text x="450" y="62" text-anchor="middle" font-size="12" font-family="Arial" fill="#6b7280">数据来源：exp6_alpenglow_votor/report/exp6_summary.csv</text>
<line x1="90" y1="440" x2="840" y2="440" stroke="#111827" stroke-width="2"/>
<line x1="90" y1="90" x2="90" y2="440" stroke="#111827" stroke-width="2"/>
<g font-size="12" font-family="Arial" fill="#4b5563">
<text x="58" y="444">0</text>
<text x="50" y="384">5</text>
<text x="42" y="324">10</text>
<text x="42" y="264">15</text>
<text x="42" y="204">20</text>
<text x="42" y="144">25</text>
<text x="42" y="84">30</text>
</g>
<g stroke="#e5e7eb" stroke-width="1">
<line x1="90" y1="380" x2="840" y2="380"/>
<line x1="90" y1="320" x2="840" y2="320"/>
<line x1="90" y1="260" x2="840" y2="260"/>
<line x1="90" y1="200" x2="840" y2="200"/>
<line x1="90" y1="140" x2="840" y2="140"/>
</g>
<polyline fill="none" stroke="#dc2626" stroke-width="4" points="160,161.5 340,130.2 540,166.0 760,190.4"/>
<g fill="#dc2626">
<circle cx="160" cy="161.5" r="6"/>
<circle cx="340" cy="130.2" r="6"/>
<circle cx="540" cy="166.0" r="6"/>
<circle cx="760" cy="190.4" r="6"/>
</g>
<g font-size="12" font-family="Arial" fill="#111827">
<text x="160" y="148" text-anchor="middle">23.21</text>
<text x="340" y="117" text-anchor="middle">25.65</text>
<text x="540" y="153" text-anchor="middle">22.83</text>
<text x="760" y="177" text-anchor="middle">20.80</text>
<text x="160" y="468" text-anchor="middle">4</text>
<text x="340" y="468" text-anchor="middle">8</text>
<text x="540" y="468" text-anchor="middle">16</text>
<text x="760" y="468" text-anchor="middle">32</text>
</g>
<text x="25" y="270" transform="rotate(-90 25,270)" text-anchor="middle" font-size="14" font-family="Arial" fill="#111827">TPS</text>
<text x="460" y="500" text-anchor="middle" font-size="14" font-family="Arial" fill="#111827">节点规模</text>
</svg>
